<mxfile host="app.diagrams.net" agent="Mozilla/5.0 (X11; Linux x86_64; rv:143.0) Gecko/20100101 Firefox/143.0" version="28.2.7">
  <diagram name="Страница — 1" id="cka1hHKxKbjvaWri14X5">
    <mxGraphModel dx="1426" dy="757" grid="1" gridSize="10" guides="1" tooltips="1" connect="1" arrows="1" fold="1" page="1" pageScale="1" pageWidth="1654" pageHeight="2336" background="none" math="0" shadow="0">
      <root>
        <mxCell id="0" />
        <mxCell id="1" parent="0" />
        <mxCell id="4fH8sYnN1hW22ZoU_4J2-1" value="Resume" style="swimlane;fontStyle=1;align=center;verticalAlign=top;childLayout=stackLayout;horizontal=1;startSize=26;horizontalStack=0;resizeParent=1;resizeParentMax=0;resizeLast=0;collapsible=1;marginBottom=0;whiteSpace=wrap;html=1;" parent="1" vertex="1">
          <mxGeometry x="570" y="239" width="230" height="130" as="geometry" />
        </mxCell>
        <mxCell id="4fH8sYnN1hW22ZoU_4J2-2" value="&lt;div&gt;+id: String; +owner: Candidate;&amp;nbsp;&lt;/div&gt;&lt;div&gt;+experience: Experience;&amp;nbsp;&lt;/div&gt;&lt;div&gt;+education: Education&lt;/div&gt;" style="text;strokeColor=none;fillColor=none;align=left;verticalAlign=top;spacingLeft=4;spacingRight=4;overflow=hidden;rotatable=0;points=[[0,0.5],[1,0.5]];portConstraint=eastwest;whiteSpace=wrap;html=1;" parent="4fH8sYnN1hW22ZoU_4J2-1" vertex="1">
          <mxGeometry y="26" width="230" height="54" as="geometry" />
        </mxCell>
        <mxCell id="4fH8sYnN1hW22ZoU_4J2-3" value="" style="line;strokeWidth=1;fillColor=none;align=left;verticalAlign=middle;spacingTop=-1;spacingLeft=3;spacingRight=3;rotatable=0;labelPosition=right;points=[];portConstraint=eastwest;strokeColor=inherit;" parent="4fH8sYnN1hW22ZoU_4J2-1" vertex="1">
          <mxGeometry y="80" width="230" height="10" as="geometry" />
        </mxCell>
        <mxCell id="4fH8sYnN1hW22ZoU_4J2-4" value="+publish(): void; +archive(): void; +update(): void;&amp;nbsp;" style="text;strokeColor=none;fillColor=none;align=left;verticalAlign=top;spacingLeft=4;spacingRight=4;overflow=hidden;rotatable=0;points=[[0,0.5],[1,0.5]];portConstraint=eastwest;whiteSpace=wrap;html=1;" parent="4fH8sYnN1hW22ZoU_4J2-1" vertex="1">
          <mxGeometry y="90" width="230" height="40" as="geometry" />
        </mxCell>
        <mxCell id="4fH8sYnN1hW22ZoU_4J2-7" value="Person" style="html=1;whiteSpace=wrap;" parent="1" vertex="1">
          <mxGeometry x="905" y="110" width="110" height="50" as="geometry" />
        </mxCell>
        <mxCell id="4fH8sYnN1hW22ZoU_4J2-8" value="Education" style="swimlane;fontStyle=1;align=center;verticalAlign=top;childLayout=stackLayout;horizontal=1;startSize=26;horizontalStack=0;resizeParent=1;resizeParentMax=0;resizeLast=0;collapsible=1;marginBottom=0;whiteSpace=wrap;html=1;" parent="1" vertex="1">
          <mxGeometry x="320" y="253" width="160" height="130" as="geometry" />
        </mxCell>
        <mxCell id="4fH8sYnN1hW22ZoU_4J2-9" value="&lt;div&gt;+ degree: String;&amp;nbsp;&lt;/div&gt;&lt;div&gt;+ knowledge Knowledge[];&lt;/div&gt;&lt;div&gt;+ university: String;&lt;/div&gt;" style="text;strokeColor=none;fillColor=none;align=left;verticalAlign=top;spacingLeft=4;spacingRight=4;overflow=hidden;rotatable=0;points=[[0,0.5],[1,0.5]];portConstraint=eastwest;whiteSpace=wrap;html=1;" parent="4fH8sYnN1hW22ZoU_4J2-8" vertex="1">
          <mxGeometry y="26" width="160" height="54" as="geometry" />
        </mxCell>
        <mxCell id="4fH8sYnN1hW22ZoU_4J2-10" value="" style="line;strokeWidth=1;fillColor=none;align=left;verticalAlign=middle;spacingTop=-1;spacingLeft=3;spacingRight=3;rotatable=0;labelPosition=right;points=[];portConstraint=eastwest;strokeColor=inherit;" parent="4fH8sYnN1hW22ZoU_4J2-8" vertex="1">
          <mxGeometry y="80" width="160" height="8" as="geometry" />
        </mxCell>
        <mxCell id="4fH8sYnN1hW22ZoU_4J2-11" value="&lt;div&gt;+ isCompleted(): boolean;&lt;/div&gt;" style="text;strokeColor=none;fillColor=none;align=left;verticalAlign=top;spacingLeft=4;spacingRight=4;overflow=hidden;rotatable=0;points=[[0,0.5],[1,0.5]];portConstraint=eastwest;whiteSpace=wrap;html=1;" parent="4fH8sYnN1hW22ZoU_4J2-8" vertex="1">
          <mxGeometry y="88" width="160" height="42" as="geometry" />
        </mxCell>
        <mxCell id="4fH8sYnN1hW22ZoU_4J2-12" value="Experience" style="swimlane;fontStyle=1;align=center;verticalAlign=top;childLayout=stackLayout;horizontal=1;startSize=26;horizontalStack=0;resizeParent=1;resizeParentMax=0;resizeLast=0;collapsible=1;marginBottom=0;whiteSpace=wrap;html=1;" parent="1" vertex="1">
          <mxGeometry x="605" y="450" width="160" height="150" as="geometry" />
        </mxCell>
        <mxCell id="4fH8sYnN1hW22ZoU_4J2-13" value="&lt;div&gt;+ companies: List&lt;/div&gt;&lt;div&gt;+ id: String&lt;/div&gt;&lt;div&gt;+ achievements: List&lt;/div&gt;" style="text;strokeColor=none;fillColor=none;align=left;verticalAlign=top;spacingLeft=4;spacingRight=4;overflow=hidden;rotatable=0;points=[[0,0.5],[1,0.5]];portConstraint=eastwest;whiteSpace=wrap;html=1;" parent="4fH8sYnN1hW22ZoU_4J2-12" vertex="1">
          <mxGeometry y="26" width="160" height="54" as="geometry" />
        </mxCell>
        <mxCell id="4fH8sYnN1hW22ZoU_4J2-14" value="" style="line;strokeWidth=1;fillColor=none;align=left;verticalAlign=middle;spacingTop=-1;spacingLeft=3;spacingRight=3;rotatable=0;labelPosition=right;points=[];portConstraint=eastwest;strokeColor=inherit;" parent="4fH8sYnN1hW22ZoU_4J2-12" vertex="1">
          <mxGeometry y="80" width="160" height="8" as="geometry" />
        </mxCell>
        <mxCell id="4fH8sYnN1hW22ZoU_4J2-15" value="&lt;div&gt;+ getDuration(): int;&lt;/div&gt;&lt;div&gt;+ update(): void;&lt;/div&gt;&lt;div&gt;+ add(Achievement a): void;&lt;/div&gt;" style="text;strokeColor=none;fillColor=none;align=left;verticalAlign=top;spacingLeft=4;spacingRight=4;overflow=hidden;rotatable=0;points=[[0,0.5],[1,0.5]];portConstraint=eastwest;whiteSpace=wrap;html=1;" parent="4fH8sYnN1hW22ZoU_4J2-12" vertex="1">
          <mxGeometry y="88" width="160" height="62" as="geometry" />
        </mxCell>
        <mxCell id="4fH8sYnN1hW22ZoU_4J2-16" value="Candidate" style="swimlane;fontStyle=1;align=center;verticalAlign=top;childLayout=stackLayout;horizontal=1;startSize=26;horizontalStack=0;resizeParent=1;resizeParentMax=0;resizeLast=0;collapsible=1;marginBottom=0;whiteSpace=wrap;html=1;" parent="1" vertex="1">
          <mxGeometry x="880" y="241" width="160" height="110" as="geometry" />
        </mxCell>
        <mxCell id="4fH8sYnN1hW22ZoU_4J2-17" value="&lt;div&gt;+ id: String; + age: int;&lt;/div&gt;&lt;div&gt;+ resumes: List;&lt;/div&gt;" style="text;strokeColor=none;fillColor=none;align=left;verticalAlign=top;spacingLeft=4;spacingRight=4;overflow=hidden;rotatable=0;points=[[0,0.5],[1,0.5]];portConstraint=eastwest;whiteSpace=wrap;html=1;" parent="4fH8sYnN1hW22ZoU_4J2-16" vertex="1">
          <mxGeometry y="26" width="160" height="36" as="geometry" />
        </mxCell>
        <mxCell id="4fH8sYnN1hW22ZoU_4J2-18" value="" style="line;strokeWidth=1;fillColor=none;align=left;verticalAlign=middle;spacingTop=-1;spacingLeft=3;spacingRight=3;rotatable=0;labelPosition=right;points=[];portConstraint=eastwest;strokeColor=inherit;" parent="4fH8sYnN1hW22ZoU_4J2-16" vertex="1">
          <mxGeometry y="62" width="160" height="8" as="geometry" />
        </mxCell>
        <mxCell id="4fH8sYnN1hW22ZoU_4J2-19" value="&lt;div&gt;+call(): void;&amp;nbsp;&lt;/div&gt;&lt;div&gt;+createResume(): void;&lt;/div&gt;&lt;div&gt;&lt;br&gt;&lt;/div&gt;" style="text;strokeColor=none;fillColor=none;align=left;verticalAlign=top;spacingLeft=4;spacingRight=4;overflow=hidden;rotatable=0;points=[[0,0.5],[1,0.5]];portConstraint=eastwest;whiteSpace=wrap;html=1;" parent="4fH8sYnN1hW22ZoU_4J2-16" vertex="1">
          <mxGeometry y="70" width="160" height="40" as="geometry" />
        </mxCell>
        <mxCell id="4fH8sYnN1hW22ZoU_4J2-23" value="" style="endArrow=diamondThin;endFill=1;endSize=24;html=1;rounded=0;exitX=0;exitY=0.5;exitDx=0;exitDy=0;entryX=0.996;entryY=0.364;entryDx=0;entryDy=0;entryPerimeter=0;" parent="1" source="4fH8sYnN1hW22ZoU_4J2-17" target="4fH8sYnN1hW22ZoU_4J2-2" edge="1">
          <mxGeometry width="160" relative="1" as="geometry">
            <mxPoint x="650" y="440" as="sourcePoint" />
            <mxPoint x="840" y="350" as="targetPoint" />
          </mxGeometry>
        </mxCell>
        <mxCell id="zPVuetKt_2sG2XiOcup6-1" value="Extends" style="endArrow=block;endSize=16;endFill=0;html=1;rounded=0;entryX=0.5;entryY=1;entryDx=0;entryDy=0;exitX=0.5;exitY=0;exitDx=0;exitDy=0;" edge="1" parent="1" source="4fH8sYnN1hW22ZoU_4J2-16" target="4fH8sYnN1hW22ZoU_4J2-7">
          <mxGeometry width="160" relative="1" as="geometry">
            <mxPoint x="650" y="400" as="sourcePoint" />
            <mxPoint x="810" y="400" as="targetPoint" />
          </mxGeometry>
        </mxCell>
        <mxCell id="zPVuetKt_2sG2XiOcup6-2" value="" style="endArrow=diamondThin;endFill=0;endSize=24;html=1;rounded=0;entryX=0.5;entryY=1;entryDx=0;entryDy=0;exitX=0.5;exitY=0;exitDx=0;exitDy=0;" edge="1" parent="1" source="4fH8sYnN1hW22ZoU_4J2-12" target="4fH8sYnN1hW22ZoU_4J2-1">
          <mxGeometry width="160" relative="1" as="geometry">
            <mxPoint x="650" y="400" as="sourcePoint" />
            <mxPoint x="810" y="400" as="targetPoint" />
          </mxGeometry>
        </mxCell>
        <mxCell id="zPVuetKt_2sG2XiOcup6-3" value="" style="endArrow=diamondThin;endFill=0;endSize=24;html=1;rounded=0;entryX=0;entryY=0.296;entryDx=0;entryDy=0;entryPerimeter=0;exitX=0.988;exitY=0.037;exitDx=0;exitDy=0;exitPerimeter=0;" edge="1" parent="1" source="4fH8sYnN1hW22ZoU_4J2-9" target="4fH8sYnN1hW22ZoU_4J2-2">
          <mxGeometry width="160" relative="1" as="geometry">
            <mxPoint x="520" y="300" as="sourcePoint" />
            <mxPoint x="810" y="400" as="targetPoint" />
          </mxGeometry>
        </mxCell>
      </root>
    </mxGraphModel>
  </diagram>
</mxfile>
